<!DOCTYPE svg PUBLIC "-//W3C//DTD SVG 1.1//EN" "http://www.w3.org/Graphics/SVG/1.1/DTD/svg11.dtd">
<!-- Uploaded to: SVG Repo, www.svgrepo.com, Transformed by: SVG Repo Mixer Tools -->
<svg width="800px" height="800px" viewBox="-1.5 0 255 255" xmlns="http://www.w3.org/2000/svg" xmlns:xlink="http://www.w3.org/1999/xlink" preserveAspectRatio="xMidYMid" fill="#000000">
<g id="SVGRepo_bgCarrier" stroke-width="0"/>
<g id="SVGRepo_tracerCarrier" stroke-linecap="round" stroke-linejoin="round"/>
<g id="SVGRepo_iconCarrier"> <defs> <style> .cls-3 { fill: #80a7cb; } .cls-4 { fill: #7ab4b8; } .cls-5 { fill: #ffa270; } .cls-6 { fill: #ff7094; } </style> </defs> <g id="carrot"> <path d="M240.543,81.794 C240.543,81.794 160.080,103.354 160.080,103.354 C160.080,103.354 148.286,91.560 148.286,91.560 C148.286,91.560 169.846,11.097 169.846,11.097 C171.990,3.095 180.215,-1.654 188.217,0.491 C196.219,2.635 200.968,10.860 198.824,18.862 C198.824,18.862 186.395,65.245 186.395,65.245 C186.395,65.245 232.778,52.816 232.778,52.816 C240.780,50.672 249.005,55.421 251.150,63.423 C253.294,71.425 248.545,79.650 240.543,81.794 Z" id="path-1" class="cls-3" fill-rule="evenodd"/> <path d="M237.622,14.018 C243.480,19.876 243.480,29.374 237.622,35.232 C237.622,35.232 170.447,102.407 170.447,102.407 C170.447,102.407 149.233,81.194 149.233,81.194 C149.233,81.194 216.409,14.018 216.409,14.018 C222.266,8.161 231.764,8.161 237.622,14.018 Z" id="path-2" class="cls-4" fill-rule="evenodd"/> <path d="M199.248,152.901 C196.419,154.315 26.904,250.192 26.904,250.192 C17.827,255.309 10.525,256.441 4.276,250.192 C-1.972,243.944 -0.841,236.642 4.276,227.565 C4.276,227.565 100.153,58.049 101.568,55.221 C102.982,52.392 112.625,38.929 125.899,52.202 C125.899,52.202 202.266,128.570 202.266,128.570 C215.540,141.843 202.076,151.487 199.248,152.901 Z" id="path-3" class="cls-5" fill-rule="evenodd"/> <path d="M132.970,152.611 C134.532,151.049 137.065,151.049 138.627,152.611 C138.627,152.611 160.634,174.619 160.634,174.619 C158.288,175.943 155.874,177.305 153.402,178.701 C153.402,178.701 132.970,158.268 132.970,158.268 C131.408,156.706 131.408,154.173 132.970,152.611 ZM55.188,176.653 C55.188,176.653 79.230,200.695 79.230,200.695 C80.792,202.257 80.792,204.789 79.230,206.352 C77.668,207.914 75.135,207.914 73.573,206.352 C73.573,206.352 49.531,182.310 49.531,182.310 C47.969,180.748 47.969,178.215 49.531,176.653 C51.093,175.091 53.626,175.091 55.188,176.653 ZM31.146,212.008 C29.584,213.570 27.052,213.570 25.490,212.008 C25.490,212.008 17.558,204.077 17.558,204.077 C18.851,201.791 20.217,199.375 21.645,196.850 C21.645,196.850 31.146,206.352 31.146,206.352 C32.709,207.914 32.709,210.446 31.146,212.008 ZM76.401,155.440 C76.401,155.440 56.371,135.410 56.371,135.410 C57.738,132.991 59.101,130.579 60.456,128.180 C60.456,128.180 82.058,149.783 82.058,149.783 C83.620,151.345 83.620,153.878 82.058,155.440 C80.496,157.002 77.964,157.002 76.401,155.440 ZM142.162,108.064 C140.600,109.626 138.067,109.626 136.505,108.064 C136.505,108.064 112.464,84.022 112.464,84.022 C110.902,82.460 110.902,79.927 112.464,78.365 C114.026,76.803 116.559,76.803 118.121,78.365 C118.121,78.365 142.162,102.407 142.162,102.407 C143.724,103.969 143.724,106.501 142.162,108.064 Z" id="path-4" class="cls-6" fill-rule="evenodd"/> </g> </g>
</svg>