<?xml version="1.0" encoding="iso-8859-1"?>
<!-- Uploaded to: SVG Repo, www.svgrepo.com, Generator: SVG Repo Mixer Tools -->
<svg height="800px" width="800px" version="1.1" id="Layer_1" xmlns="http://www.w3.org/2000/svg" xmlns:xlink="http://www.w3.org/1999/xlink" 
	 viewBox="0 0 512 512" xml:space="preserve">
<path style="fill:#D6DAE6;" d="M228.17,243.364C160.202,42.416,98.082-22.912,48.786,6.831S28.316,121.987,174.392,275.81
	L228.17,243.364z"/>
<path style="opacity:0.1;enable-background:new    ;" d="M70.466,6.831c4.101-2.475,8.293-4.274,12.567-5.41
	c-11.985-3.063-23.426-1.12-34.248,5.41C-0.512,36.574,28.316,121.987,174.392,275.81l13.82-8.338
	C48.983,118.898,22.067,36.032,70.466,6.831z"/>
<path style="fill:#FFA0C1;" d="M197.512,265.067c-43.351-46.409-75.934-87.078-97.001-121.097
	c-8.889-14.352-29.272-49.987-26.597-70.882c0.655-5.114,2.498-7.915,7.044-10.701c4.007-2.455,6.641-2.58,8.488-2.414
	c4.579,0.411,21.644,5.007,49.03,46.885c22.688,34.692,46.241,85.552,70.134,151.408L197.512,265.067z"/>
<path style="fill:#D6DAE6;" d="M283.829,243.364C351.798,42.416,413.917-22.912,463.215,6.831s20.47,115.155-125.606,268.979
	L283.829,243.364z"/>
<path style="opacity:0.1;enable-background:new    ;" d="M305.51,243.364C358.557,86.532,408.04,12.312,450.646,1.422
	c-47.108-12.509-104.503,57.712-166.817,241.943l53.779,32.446c2.663-2.804,5.275-5.58,7.86-8.338L305.51,243.364z"/>
<path style="fill:#FFA0C1;" d="M314.488,265.067c43.351-46.409,75.934-87.078,97.001-121.097
	c8.888-14.352,29.271-49.987,26.596-70.882c-0.655-5.114-2.498-7.915-7.044-10.701c-4.007-2.455-6.641-2.58-8.488-2.414
	c-4.579,0.411-21.644,5.007-49.03,46.885c-22.688,34.692-46.241,85.552-70.134,151.408L314.488,265.067z"/>
<path style="fill:#DDE1ED;" d="M379.942,312.473c0-68.452-55.491-123.942-123.942-123.942s-123.942,55.491-123.942,123.942
	C68.664,312.473,36.966,512,256,512S443.336,312.473,379.942,312.473z"/>
<path style="opacity:0.1;enable-background:new    ;" d="M164.578,312.473c0-62.939,46.915-114.917,107.682-122.88
	c-5.322-0.697-10.748-1.062-16.261-1.062c-68.452,0-123.942,55.491-123.942,123.942C68.664,312.473,36.966,512,256,512
	c5.585,0,10.998-0.137,16.261-0.389C71.134,501.949,102.801,312.473,164.578,312.473z"/>
<g>
	<circle style="fill:#43434D;" cx="189.533" cy="348.193" r="14.223"/>
	<path style="fill:#43434D;" d="M311.229,402.566c-2.057-3.991-6.961-5.559-10.952-3.501c-8.211,4.232-19.478,8.353-26.53,3.946
		c-7.719-4.822-9.521-18.609-9.621-24.843c0.018-0.957,0.003-1.531,0.001-1.61c-0.119-4.403-3.723-7.91-8.127-7.91
		c-4.404,0-8.008,3.507-8.127,7.91c-0.002,0.081-0.017,0.681,0.003,1.68c-0.108,6.034-1.92,19.932-9.598,24.756
		c-7.052,4.43-18.333,0.309-26.556-3.93c-3.991-2.058-8.895-0.49-10.952,3.501c-2.057,3.991-0.49,8.895,3.501,10.952
		c17.431,8.987,31.782,10.077,42.657,3.246c3.52-2.211,6.563-5.242,9.071-9c2.508,3.757,5.551,6.788,9.071,9
		c4.692,2.947,10.031,4.421,15.986,4.421c7.846,0,16.76-2.557,26.671-7.666C311.718,411.46,313.287,406.557,311.229,402.566z"/>
</g>
<ellipse style="fill:#FFA0C1;" cx="255.995" cy="369.939" rx="18.308" ry="12.078"/>
<circle style="fill:#43434D;" cx="322.469" cy="348.193" r="14.223"/>
</svg>